<svg aria-hidden="true" style="position: absolute; width: 0; height: 0; overflow: hidden;" version="1.1" xmlns="http://www.w3.org/2000/svg" xmlns:xlink="http://www.w3.org/1999/xlink">
<defs>
<symbol id="icon-favicon" viewBox="0 0 32 32">
<path d="M14.496 8.256c-0.762 0.16-1.158 0.282-1.741 0.55l-0.48 0.218-0.32-0.288c-0.179-0.16-0.346-0.275-0.371-0.256-0.032 0.019-0.070 0.006-0.096-0.032-0.064-0.109-0.307-0.077-0.262 0.032 0.032 0.083 0.013 0.090-0.096 0.032-0.070-0.038-0.205-0.064-0.301-0.058s-0.25-0.019-0.339-0.058c-0.173-0.070-0.442-0.038-0.442 0.051 0 0.070-0.339 0.058-0.429-0.013-0.058-0.045-0.083-0.045-0.083 0.013 0 0.038 0.058 0.090 0.128 0.109s0.128 0.064 0.128 0.109c0 0.051 0.013 0.051 0.051 0 0.064-0.102 0.614-0.179 0.55-0.083-0.032 0.058 0.032 0.064 0.25 0.038 0.237-0.032 0.301-0.026 0.301 0.051 0 0.058 0.038 0.077 0.096 0.058 0.051-0.026 0.096-0.006 0.096 0.032s-0.051 0.070-0.115 0.070c-0.070 0-0.192 0.058-0.275 0.134-0.083 0.070-0.198 0.115-0.262 0.102-0.064-0.019-0.115-0.006-0.115 0.026s-0.045 0.058-0.102 0.058c-0.064 0-0.083 0.038-0.064 0.109 0.058 0.179-0.467 0.192-0.691 0.013-0.090-0.070-0.166-0.102-0.166-0.070 0 0.083 0.205 0.25 0.352 0.288 0.070 0.013-0.006 0.032-0.173 0.038-0.173 0.006-0.307 0.038-0.326 0.083-0.026 0.064-0.045 0.064-0.115 0-0.045-0.038-0.134-0.077-0.198-0.077s-0.134-0.045-0.154-0.096c-0.026-0.051-0.064-0.077-0.102-0.058-0.032 0.019-0.013 0.090 0.051 0.16 0.090 0.096 0.096 0.134 0.026 0.218-0.045 0.058-0.141 0.134-0.211 0.173-0.122 0.064-0.128 0.051-0.096-0.23 0.019-0.16 0.026-0.294 0.019-0.294s-0.077 0.179-0.16 0.397c-0.122 0.326-0.141 0.474-0.109 0.845 0.045 0.531 0.307 1.114 0.646 1.44l0.224 0.218-0.147 0.294c-1.011 2.003-0.992 4.806 0.038 6.854 0.422 0.838 0.858 1.446 1.491 2.080 1.107 1.12 2.298 1.792 3.802 2.157 0.8 0.192 2.291 0.23 3.123 0.083 1.939-0.346 3.693-1.389 4.851-2.88 1.165-1.51 1.696-3.027 1.696-4.864 0-2.182-0.781-4.077-2.304-5.6-1.184-1.19-2.522-1.888-4.218-2.202-0.736-0.141-2.106-0.128-2.854 0.026zM17.402 8.736c2.918 0.557 5.338 2.97 5.856 5.856 0.218 1.216 0.192 2.131-0.096 3.264-0.55 2.182-2.253 4.147-4.314 4.973-2.867 1.152-5.926 0.544-8.070-1.606-2.15-2.15-2.778-5.363-1.587-8.141l0.224-0.525 0.301 0.096c0.48 0.147 1.254 0.083 1.702-0.141s0.826-0.627 1.050-1.107c0.218-0.461 0.269-1.21 0.115-1.645l-0.096-0.301 0.397-0.179c0.563-0.256 1.344-0.486 1.901-0.57 0.262-0.038 0.55-0.083 0.64-0.096 0.288-0.051 1.434 0.019 1.978 0.122zM11.091 9.094c0.141 0.16 0.122 0.186-0.064 0.115-0.083-0.032-0.147-0.096-0.147-0.154 0-0.134 0.077-0.122 0.211 0.038zM8.39 10.285c-0.051 0.096-0.064 0.096-0.070 0.013 0-0.109 0.064-0.205 0.115-0.16 0.013 0.019-0.006 0.083-0.045 0.147zM12.064 11.52c0.019 0.032 0.006 0.064-0.026 0.064-0.038 0-0.070-0.032-0.070-0.064 0-0.038 0.013-0.064 0.026-0.064 0.019 0 0.051 0.026 0.070 0.064zM11.923 11.776c-0.019 0.070-0.077 0.128-0.122 0.128-0.077 0-0.077-0.026-0.013-0.128 0.045-0.070 0.102-0.128 0.122-0.128 0.026 0 0.032 0.058 0.013 0.128z"></path>
<path d="M17.914 12.55c-0.147 0.128-0.154 0.128-0.013 0.090 0.122-0.032 0.141-0.006 0.179 0.25 0.058 0.371 0.013 0.486-0.186 0.486-0.147 0-0.358 0.179-0.576 0.474-0.083 0.122-0.090 0.122-0.128-0.013-0.045-0.141-0.141-0.173-0.32-0.102-0.128 0.051-0.134 0.154-0.013 0.154s0.154 0.109 0.205 0.672c0.038 0.397 0.064 0.48 0.147 0.467 0.077-0.019 0.109-0.128 0.141-0.499 0.032-0.486 0.179-0.87 0.352-0.941 0.141-0.051 0.192 0.032 0.102 0.173-0.122 0.205-0.090 0.224 0.090 0.058l0.16-0.154-0.013 0.723c-0.019 0.787 0.032 0.941 0.314 0.864 0.147-0.038 0.147-0.038 0.013-0.128-0.122-0.090-0.128-0.128-0.083-1.338 0.032-1.043 0.026-1.261-0.051-1.312-0.128-0.077-0.154-0.070-0.32 0.077z"></path>
<path d="M19.155 12.653c-0.045 0.013-0.083 0.058-0.083 0.090 0 0.026 0.045 0.038 0.096 0.019 0.134-0.058 0.224 0.224 0.224 0.704 0 0.403 0 0.41-0.198 0.448-0.109 0.019-0.282 0.122-0.384 0.23-0.16 0.154-0.192 0.237-0.173 0.429 0.019 0.237 0.026 0.243 0.275 0.237 0.141 0 0.301-0.026 0.365-0.051 0.077-0.032 0.115-0.006 0.147 0.102 0.026 0.083 0.090 0.198 0.147 0.256 0.109 0.128 0.365 0.154 0.429 0.051 0.026-0.038 0.019-0.064-0.013-0.058-0.23 0.038-0.371-0.256-0.326-0.71 0.019-0.173 0.019-0.326 0.006-0.339s-0.032-0.301-0.038-0.634c-0.019-0.742-0.128-0.915-0.474-0.774zM19.29 14.054c0.237 0.090 0.045 0.666-0.218 0.666-0.269 0-0.32-0.371-0.090-0.602 0.109-0.115 0.154-0.122 0.307-0.064z"></path>
<path d="M12.704 12.902c-0.454 0.109-0.736 0.365-0.736 0.666 0 0.109 0.032 0.192 0.064 0.192 0.038 0 0.064-0.083 0.064-0.179 0-0.256 0.128-0.397 0.416-0.461 0.141-0.032 0.256-0.051 0.269-0.045 0.006 0.013-0.058 0.166-0.147 0.339-0.218 0.442-0.275 0.986-0.122 1.216 0.096 0.154 0.141 0.166 0.39 0.134 0.275-0.026 0.282-0.026 0.346 0.205 0.186 0.646 0.89 0.909 1.574 0.576 0.506-0.243 0.902-1.12 0.787-1.741-0.141-0.768-0.582-1.082-0.998-0.717l-0.179 0.154 0.211-0.077c0.25-0.090 0.365-0.032 0.57 0.269 0.211 0.307 0.243 0.794 0.090 1.242-0.243 0.704-0.525 0.928-1.056 0.851-0.346-0.051-0.602-0.243-0.717-0.525-0.134-0.326-0.109-0.493 0.109-0.704 0.25-0.237 0.403-0.518 0.307-0.57-0.211-0.134-0.608 0.224-0.691 0.634-0.038 0.179-0.064 0.198-0.294 0.198-0.333 0-0.403-0.179-0.288-0.723 0.077-0.358 0.147-0.518 0.422-0.896 0.122-0.16 0.128-0.16-0.39-0.038zM13.664 14.074c-0.122 0.243-0.224 0.307-0.179 0.122 0.045-0.173 0.141-0.307 0.218-0.307 0.032 0 0.019 0.083-0.038 0.186z"></path>
<path d="M16.141 13.824c-0.346 0.211-0.429 0.678-0.141 0.832 0.090 0.051 0.166 0.045 0.275-0.006 0.435-0.224 0.55-0.563 0.282-0.813-0.179-0.173-0.16-0.166-0.416-0.013zM16.448 14.074c0.090 0.173-0.026 0.454-0.186 0.454-0.147 0-0.224-0.198-0.173-0.422 0.051-0.186 0.262-0.205 0.358-0.032z"></path>
<path d="M12.179 16.237c-0.045 0.013-0.083 0.058-0.083 0.090 0 0.026 0.045 0.038 0.096 0.019 0.134-0.058 0.224 0.224 0.224 0.704 0 0.403 0 0.41-0.198 0.448-0.294 0.058-0.57 0.365-0.57 0.64 0 0.307 0.166 0.397 0.493 0.262 0.237-0.102 0.333-0.064 0.339 0.134 0 0.122 0.224 0.282 0.39 0.282h0.154l-0.16-0.128c-0.16-0.115-0.16-0.141-0.192-1.203-0.026-0.768-0.064-1.12-0.122-1.19-0.083-0.102-0.218-0.122-0.371-0.058zM12.358 17.664c0.032 0 0.058 0.090 0.058 0.205 0 0.352-0.326 0.563-0.512 0.339-0.154-0.179 0.096-0.659 0.301-0.582 0.051 0.019 0.122 0.038 0.154 0.038z"></path>
<path d="M14.496 16.89c-0.070 0.032-0.186 0.115-0.25 0.192-0.122 0.128-0.122 0.147-0.013 0.346 0.058 0.109 0.198 0.346 0.307 0.512 0.237 0.358 0.198 0.525-0.115 0.525-0.173 0-0.186-0.019-0.173-0.224l0.006-0.224-0.122 0.154c-0.352 0.429 0.141 0.717 0.57 0.333 0.269-0.25 0.262-0.416-0.051-0.877-0.294-0.435-0.333-0.621-0.109-0.589 0.090 0.013 0.134 0.058 0.128 0.134s0.026 0.109 0.090 0.083c0.051-0.019 0.109-0.038 0.122-0.038s0.026-0.070 0.026-0.154c0-0.205-0.16-0.275-0.416-0.173z"></path>
<path d="M15.2 16.96c-0.051 0.083 0.083 0.256 0.198 0.256 0.141 0 0.173-0.134 0.051-0.224-0.147-0.109-0.198-0.115-0.25-0.032z"></path>
<path d="M20.045 17.254c-0.237 0.275-0.256 0.288-0.301 0.16-0.045-0.154-0.237-0.179-0.346-0.045-0.058 0.070-0.045 0.096 0.045 0.115 0.134 0.038 0.205 0.32 0.205 0.838 0 0.262 0.019 0.307 0.115 0.288 0.090-0.019 0.115-0.115 0.147-0.499 0.051-0.653 0.282-1.069 0.499-0.928 0.045 0.026 0.032 0.102-0.038 0.211-0.102 0.166-0.096 0.16 0.109-0.032 0.237-0.224 0.224-0.403-0.026-0.403-0.109 0-0.237 0.096-0.41 0.294z"></path>
<path d="M16.224 17.184c-0.262 0.134-0.416 0.333-0.416 0.544 0 0.275 0.154 0.365 0.41 0.237 0.122-0.058 0.237-0.083 0.256-0.064 0.070 0.070 0.038 0.576-0.058 1.056-0.077 0.365-0.141 0.506-0.294 0.64-0.243 0.224-0.403 0.224-0.608 0.019-0.154-0.154-0.282-0.166-0.282-0.026 0 0.032 0.058 0.115 0.128 0.186 0.179 0.179 0.499 0.166 0.768-0.032 0.448-0.326 0.563-0.704 0.582-1.843 0.013-0.544-0.006-0.71-0.077-0.755-0.122-0.077-0.186-0.070-0.41 0.038zM16.448 17.498c0 0.339-0.314 0.486-0.422 0.198-0.058-0.134 0.147-0.416 0.294-0.416 0.102 0 0.128 0.045 0.128 0.218z"></path>
<path d="M13.376 17.395c-0.122 0.058-0.262 0.192-0.307 0.288-0.179 0.371 0.109 0.813 0.461 0.723 0.179-0.045 0.563-0.352 0.448-0.358-0.038 0-0.109 0.045-0.154 0.096-0.109 0.128-0.339 0.122-0.467-0.019-0.16-0.173-0.134-0.269 0.070-0.269 0.346 0 0.582-0.301 0.384-0.499-0.102-0.102-0.173-0.096-0.435 0.038zM13.632 17.6c0 0.083-0.045 0.128-0.122 0.128-0.141 0-0.224-0.096-0.166-0.192 0.077-0.122 0.288-0.070 0.288 0.064z"></path>
<path d="M18.701 17.389c-0.269 0.128-0.422 0.41-0.365 0.666 0.051 0.237 0.294 0.403 0.506 0.352 0.179-0.045 0.563-0.352 0.448-0.358-0.038 0-0.109 0.045-0.154 0.096-0.109 0.128-0.339 0.122-0.467-0.019-0.16-0.173-0.134-0.269 0.070-0.269 0.346 0 0.582-0.301 0.384-0.499-0.102-0.102-0.166-0.096-0.422 0.032zM18.944 17.6c0 0.083-0.045 0.128-0.115 0.128-0.154 0-0.205-0.051-0.16-0.166 0.051-0.141 0.275-0.109 0.275 0.038z"></path>
<path d="M17.062 17.504c-0.102 0.077-0.109 0.102-0.026 0.186 0.058 0.051 0.115 0.288 0.141 0.55 0.038 0.384 0.064 0.448 0.141 0.378 0.051-0.038 0.090-0.128 0.090-0.198 0-0.154 0.256-0.755 0.32-0.755 0.083 0 0.128 0.186 0.128 0.518 0 0.499 0.141 0.659 0.48 0.531 0.090-0.038 0.083-0.051-0.045-0.115-0.122-0.058-0.154-0.147-0.192-0.454-0.096-0.768-0.173-0.832-0.538-0.442-0.205 0.218-0.218 0.218-0.218 0.077 0-0.083-0.038-0.205-0.077-0.262-0.070-0.090-0.096-0.090-0.205-0.013z"></path>
<path d="M15.136 17.562c-0.115 0.090-0.115 0.096-0.013 0.102 0.090 0 0.109 0.064 0.109 0.384 0 0.416 0.083 0.518 0.301 0.39 0.064-0.038 0.083-0.070 0.038-0.070-0.051 0-0.083-0.147-0.096-0.429-0.019-0.467-0.102-0.557-0.339-0.378z"></path>
<path d="M17.152 19.008c-0.058 0.038-0.064 0.064-0.019 0.064 0.038 0 0.096-0.032 0.115-0.064 0.051-0.077 0.026-0.077-0.096 0z"></path>
<path d="M18.944 18.97c0 0.013 0.058 0.038 0.128 0.058s0.115 0.006 0.090-0.026c-0.032-0.058-0.218-0.083-0.218-0.032z"></path>
<path d="M9.069 8.582c-0.23 0.16-0.365 0.301-0.365 0.384 0 0.179 0.147 0.147 0.269-0.064 0.077-0.134 0.173-0.205 0.339-0.237 0.154-0.026 0.211-0.064 0.173-0.102s-0.051-0.109-0.032-0.154c0.051-0.134 0.013-0.115-0.384 0.173z"></path>
<path d="M8.493 9.133c-0.026 0.019-0.045 0.070-0.045 0.109s0.032 0.032 0.077-0.013c0.038-0.038 0.058-0.090 0.045-0.109-0.019-0.019-0.058-0.013-0.077 0.013z"></path>
</symbol>
<symbol id="icon-cart" viewBox="0 0 32 32">
<path d="M12 29c0 1.657-1.343 3-3 3s-3-1.343-3-3c0-1.657 1.343-3 3-3s3 1.343 3 3z"></path>
<path d="M32 29c0 1.657-1.343 3-3 3s-3-1.343-3-3c0-1.657 1.343-3 3-3s3 1.343 3 3z"></path>
<path d="M32 16v-12h-24c0-1.105-0.895-2-2-2h-6v2h4l1.502 12.877c-0.915 0.733-1.502 1.859-1.502 3.123 0 2.209 1.791 4 4 4h24v-2h-24c-1.105 0-2-0.895-2-2 0-0.007 0-0.014 0-0.020l26-3.98z"></path>
</symbol>
<symbol id="icon-phone" viewBox="0 0 32 32">
<path d="M22 20c-2 2-2 4-4 4s-4-2-6-4-4-4-4-6 2-2 4-4-4-8-6-8-6 6-6 6c0 4 4.109 12.109 8 16s12 8 16 8c0 0 6-4 6-6s-6-8-8-6z"></path>
</symbol>
<symbol id="icon-email" viewBox="0 0 32 32">
<path d="M29 4h-26c-1.65 0-3 1.35-3 3v20c0 1.65 1.35 3 3 3h26c1.65 0 3-1.35 3-3v-20c0-1.65-1.35-3-3-3zM12.461 17.199l-8.461 6.59v-15.676l8.461 9.086zM5.512 8h20.976l-10.488 7.875-10.488-7.875zM12.79 17.553l3.21 3.447 3.21-3.447 6.58 8.447h-19.579l6.58-8.447zM19.539 17.199l8.461-9.086v15.676l-8.461-6.59z"></path>
</symbol>
<symbol id="icon-map" viewBox="0 0 32 32">
<path d="M16 0c-5.523 0-10 4.477-10 10 0 10 10 22 10 22s10-12 10-22c0-5.523-4.477-10-10-10zM16 16.125c-3.383 0-6.125-2.742-6.125-6.125s2.742-6.125 6.125-6.125 6.125 2.742 6.125 6.125-2.742 6.125-6.125 6.125zM12.125 10c0-2.14 1.735-3.875 3.875-3.875s3.875 1.735 3.875 3.875c0 2.14-1.735 3.875-3.875 3.875s-3.875-1.735-3.875-3.875z"></path>
</symbol>
<symbol id="icon-close" viewBox="0 0 32 32">
<path d="M31.708 25.708c-0-0-0-0-0-0l-9.708-9.708 9.708-9.708c0-0 0-0 0-0 0.105-0.105 0.18-0.227 0.229-0.357 0.133-0.356 0.057-0.771-0.229-1.057l-4.586-4.586c-0.286-0.286-0.702-0.361-1.057-0.229-0.13 0.048-0.252 0.124-0.357 0.228 0 0-0 0-0 0l-9.708 9.708-9.708-9.708c-0-0-0-0-0-0-0.105-0.104-0.227-0.18-0.357-0.228-0.356-0.133-0.771-0.057-1.057 0.229l-4.586 4.586c-0.286 0.286-0.361 0.702-0.229 1.057 0.049 0.13 0.124 0.252 0.229 0.357 0 0 0 0 0 0l9.708 9.708-9.708 9.708c-0 0-0 0-0 0-0.104 0.105-0.18 0.227-0.229 0.357-0.133 0.355-0.057 0.771 0.229 1.057l4.586 4.586c0.286 0.286 0.702 0.361 1.057 0.229 0.13-0.049 0.252-0.124 0.357-0.229 0-0 0-0 0-0l9.708-9.708 9.708 9.708c0 0 0 0 0 0 0.105 0.105 0.227 0.18 0.357 0.229 0.356 0.133 0.771 0.057 1.057-0.229l4.586-4.586c0.286-0.286 0.362-0.702 0.229-1.057-0.049-0.13-0.124-0.252-0.229-0.357z"></path>
</symbol>
<symbol id="icon-instagram" viewBox="0 0 32 32">
<path d="M16 2.881c4.275 0 4.781 0.019 6.462 0.094 1.563 0.069 2.406 0.331 2.969 0.55 0.744 0.288 1.281 0.638 1.837 1.194 0.563 0.563 0.906 1.094 1.2 1.838 0.219 0.563 0.481 1.412 0.55 2.969 0.075 1.688 0.094 2.194 0.094 6.463s-0.019 4.781-0.094 6.463c-0.069 1.563-0.331 2.406-0.55 2.969-0.288 0.744-0.637 1.281-1.194 1.837-0.563 0.563-1.094 0.906-1.837 1.2-0.563 0.219-1.413 0.481-2.969 0.55-1.688 0.075-2.194 0.094-6.463 0.094s-4.781-0.019-6.463-0.094c-1.563-0.069-2.406-0.331-2.969-0.55-0.744-0.288-1.281-0.637-1.838-1.194-0.563-0.563-0.906-1.094-1.2-1.837-0.219-0.563-0.481-1.413-0.55-2.969-0.075-1.688-0.094-2.194-0.094-6.463s0.019-4.781 0.094-6.463c0.069-1.563 0.331-2.406 0.55-2.969 0.288-0.744 0.638-1.281 1.194-1.838 0.563-0.563 1.094-0.906 1.838-1.2 0.563-0.219 1.412-0.481 2.969-0.55 1.681-0.075 2.188-0.094 6.463-0.094zM16 0c-4.344 0-4.887 0.019-6.594 0.094-1.7 0.075-2.869 0.35-3.881 0.744-1.056 0.412-1.95 0.956-2.837 1.85-0.894 0.888-1.438 1.781-1.85 2.831-0.394 1.019-0.669 2.181-0.744 3.881-0.075 1.713-0.094 2.256-0.094 6.6s0.019 4.887 0.094 6.594c0.075 1.7 0.35 2.869 0.744 3.881 0.413 1.056 0.956 1.95 1.85 2.837 0.887 0.887 1.781 1.438 2.831 1.844 1.019 0.394 2.181 0.669 3.881 0.744 1.706 0.075 2.25 0.094 6.594 0.094s4.888-0.019 6.594-0.094c1.7-0.075 2.869-0.35 3.881-0.744 1.050-0.406 1.944-0.956 2.831-1.844s1.438-1.781 1.844-2.831c0.394-1.019 0.669-2.181 0.744-3.881 0.075-1.706 0.094-2.25 0.094-6.594s-0.019-4.887-0.094-6.594c-0.075-1.7-0.35-2.869-0.744-3.881-0.394-1.063-0.938-1.956-1.831-2.844-0.887-0.887-1.781-1.438-2.831-1.844-1.019-0.394-2.181-0.669-3.881-0.744-1.712-0.081-2.256-0.1-6.6-0.1v0z"></path>
<path d="M16 7.781c-4.537 0-8.219 3.681-8.219 8.219s3.681 8.219 8.219 8.219 8.219-3.681 8.219-8.219c0-4.537-3.681-8.219-8.219-8.219zM16 21.331c-2.944 0-5.331-2.387-5.331-5.331s2.387-5.331 5.331-5.331c2.944 0 5.331 2.387 5.331 5.331s-2.387 5.331-5.331 5.331z"></path>
<path d="M26.462 7.456c0 1.060-0.859 1.919-1.919 1.919s-1.919-0.859-1.919-1.919c0-1.060 0.859-1.919 1.919-1.919s1.919 0.859 1.919 1.919z"></path>
</symbol>
<symbol id="icon-whatsapp" viewBox="0 0 32 32">
<path d="M27.281 4.65c-2.994-3-6.975-4.65-11.219-4.65-8.738 0-15.85 7.112-15.85 15.856 0 2.794 0.731 5.525 2.119 7.925l-2.25 8.219 8.406-2.206c2.319 1.262 4.925 1.931 7.575 1.931h0.006c0 0 0 0 0 0 8.738 0 15.856-7.113 15.856-15.856 0-4.238-1.65-8.219-4.644-11.219zM16.069 29.050v0c-2.369 0-4.688-0.637-6.713-1.837l-0.481-0.288-4.987 1.306 1.331-4.863-0.313-0.5c-1.325-2.094-2.019-4.519-2.019-7.012 0-7.269 5.912-13.181 13.188-13.181 3.519 0 6.831 1.375 9.319 3.862 2.488 2.494 3.856 5.8 3.856 9.325-0.006 7.275-5.919 13.188-13.181 13.188zM23.294 19.175c-0.394-0.2-2.344-1.156-2.706-1.288s-0.625-0.2-0.894 0.2c-0.262 0.394-1.025 1.288-1.256 1.556-0.231 0.262-0.462 0.3-0.856 0.1s-1.675-0.619-3.188-1.969c-1.175-1.050-1.975-2.35-2.206-2.744s-0.025-0.613 0.175-0.806c0.181-0.175 0.394-0.463 0.594-0.694s0.262-0.394 0.394-0.662c0.131-0.262 0.069-0.494-0.031-0.694s-0.894-2.15-1.219-2.944c-0.319-0.775-0.65-0.669-0.894-0.681-0.231-0.012-0.494-0.012-0.756-0.012s-0.694 0.1-1.056 0.494c-0.363 0.394-1.387 1.356-1.387 3.306s1.419 3.831 1.619 4.1c0.2 0.262 2.794 4.269 6.769 5.981 0.944 0.406 1.681 0.65 2.256 0.837 0.95 0.3 1.813 0.256 2.494 0.156 0.762-0.113 2.344-0.956 2.675-1.881s0.331-1.719 0.231-1.881c-0.094-0.175-0.356-0.275-0.756-0.475z"></path>
</symbol>
<symbol id="icon-telegram" viewBox="0 0 32 32">
<path d="M16 0c-8.838 0-16 7.162-16 16s7.162 16 16 16 16-7.163 16-16-7.163-16-16-16zM23.863 10.969l-2.625 12.369c-0.181 0.881-0.712 1.087-1.45 0.681l-4-2.956-1.919 1.869c-0.225 0.219-0.4 0.4-0.8 0.4-0.519 0-0.431-0.194-0.606-0.688l-1.363-4.475-3.956-1.231c-0.856-0.262-0.862-0.85 0.194-1.269l15.412-5.95c0.7-0.319 1.381 0.169 1.113 1.25z"></path>
</symbol>
<symbol id="icon-facebook" viewBox="0 0 32 32">
<path d="M19 6h5v-6h-5c-3.86 0-7 3.14-7 7v3h-4v6h4v16h6v-16h5l1-6h-6v-3c0-0.542 0.458-1 1-1z"></path>
</symbol>
</defs>
</svg>
